<svg width="432" height="558" viewBox="0 0 432 558" fill="none" xmlns="http://www.w3.org/2000/svg">
<rect x="0.5" y="0.5" width="430.957" height="556.697" rx="215.478" stroke="#0C0421"/>
<path d="M375.977 458.963C376.109 457.768 377.718 457.768 377.85 458.963L378.954 468.994C380.38 481.946 389.854 492.158 401.87 493.695L411.175 494.885C412.285 495.027 412.285 496.762 411.175 496.904L401.87 498.094C389.854 499.631 380.38 509.843 378.954 522.795L377.85 532.826C377.718 534.022 376.109 534.022 375.977 532.826L374.873 522.795C373.447 509.843 363.974 499.631 351.958 498.094L342.652 496.904C341.543 496.762 341.543 495.027 342.652 494.885L351.958 493.695C363.974 492.158 373.447 481.946 374.873 468.994L375.977 458.963Z" fill="#0C0421"/>
<path d="M54.4952 53.881C54.5722 53.1751 55.5129 53.1751 55.5899 53.881L56.2351 59.8027C57.0684 67.4492 62.6049 73.4779 69.6272 74.3852L75.0655 75.0879C75.7139 75.1717 75.7139 76.196 75.0655 76.2798L69.6272 76.9824C62.6049 77.8897 57.0684 83.9184 56.2351 91.5649L55.5899 97.4866C55.5129 98.1926 54.5722 98.1926 54.4952 97.4866L53.85 91.5649C53.0167 83.9184 47.4802 77.8897 40.4578 76.9824L35.0195 76.2798C34.3713 76.196 34.3713 75.1717 35.0195 75.0879L40.4578 74.3852C47.4802 73.4779 53.0167 67.4492 53.85 59.8027L54.4952 53.881Z" fill="#0C0421"/>
</svg>
