<svg width="300" height="300" viewBox="0 0 300 300" fill="none" xmlns="http://www.w3.org/2000/svg">
<path d="M150 289C227.32 289 290 226.32 290 149C290 71.6801 227.32 9 150 9C72.6801 9 10 71.6801 10 149C10 226.32 72.6801 289 150 289Z" fill="#F2EDC2"/>
<path d="M150 50C176.522 50 201.957 60.5357 220.711 79.2893C239.464 98.043 250 123.478 250 150" stroke="#346739" stroke-width="8"/>
<path d="M250 150C250 176.522 239.464 201.957 220.711 220.711C201.957 239.464 176.522 250 150 250" stroke="#79AE6F" stroke-width="8"/>
<path d="M150 250C123.478 250 98.043 239.464 79.2893 220.711C60.5357 201.957 50 176.522 50 150" stroke="#9FCB98" stroke-width="8"/>
<path d="M54.6667 133L35 148.2L64.5 152L54.6667 133Z" fill="#9FCB98"/>
<path d="M165.474 78H128.211C124.781 78 122 82.4772 122 88V148C122 153.523 124.781 158 128.211 158H165.474C168.904 158 171.684 153.523 171.684 148V88C171.684 82.4772 168.904 78 165.474 78Z" fill="#9FCB98" stroke="#346739" stroke-width="3"/>
<path d="M172 92C190.667 107.333 190.667 122.667 172 138" stroke="#346739" stroke-width="6"/>
<path d="M131.194 248.275L156.5 263L151.725 234.5L131.194 248.275Z" fill="#79AE6F"/>
<path d="M247 170L267 150.8L237 146L247 170Z" fill="#346739"/>
<path d="M105.292 189H103.178C103.053 188.392 102.835 187.858 102.522 187.398C102.215 186.938 101.84 186.551 101.397 186.239C100.96 185.92 100.474 185.682 99.9396 185.523C99.4055 185.364 98.8487 185.284 98.2692 185.284C97.2124 185.284 96.255 185.551 95.397 186.085C94.5447 186.619 93.8658 187.406 93.3601 188.446C92.8601 189.486 92.6101 190.761 92.6101 192.273C92.6101 193.784 92.8601 195.06 93.3601 196.099C93.8658 197.139 94.5447 197.926 95.397 198.46C96.255 198.994 97.2124 199.261 98.2692 199.261C98.8487 199.261 99.4055 199.182 99.9396 199.023C100.474 198.864 100.96 198.628 101.397 198.315C101.84 197.997 102.215 197.608 102.522 197.148C102.835 196.682 103.053 196.148 103.178 195.545H105.292C105.133 196.437 104.843 197.236 104.423 197.94C104.002 198.645 103.479 199.244 102.854 199.739C102.229 200.227 101.528 200.599 100.749 200.855C99.9766 201.111 99.1499 201.239 98.2692 201.239C96.7805 201.239 95.4567 200.875 94.2976 200.148C93.1385 199.42 92.2266 198.386 91.5618 197.045C90.897 195.705 90.5646 194.114 90.5646 192.273C90.5646 190.432 90.897 188.841 91.5618 187.5C92.2266 186.159 93.1385 185.125 94.2976 184.398C95.4567 183.67 96.7805 183.307 98.2692 183.307C99.1499 183.307 99.9766 183.435 100.749 183.69C101.528 183.946 102.229 184.321 102.854 184.815C103.479 185.304 104.002 185.901 104.423 186.605C104.843 187.304 105.133 188.102 105.292 189ZM108.435 201V187.909H110.446V201H108.435ZM109.457 185.727C109.065 185.727 108.727 185.594 108.443 185.327C108.165 185.06 108.026 184.739 108.026 184.364C108.026 183.989 108.165 183.668 108.443 183.401C108.727 183.134 109.065 183 109.457 183C109.849 183 110.185 183.134 110.463 183.401C110.747 183.668 110.889 183.989 110.889 184.364C110.889 184.739 110.747 185.06 110.463 185.327C110.185 185.594 109.849 185.727 109.457 185.727ZM119.448 201.273C118.221 201.273 117.164 200.983 116.278 200.403C115.391 199.824 114.71 199.026 114.232 198.009C113.755 196.991 113.516 195.83 113.516 194.523C113.516 193.193 113.761 192.02 114.249 191.003C114.744 189.98 115.431 189.182 116.312 188.608C117.198 188.028 118.232 187.739 119.414 187.739C120.335 187.739 121.164 187.909 121.903 188.25C122.641 188.591 123.246 189.068 123.718 189.682C124.19 190.295 124.482 191.011 124.596 191.83H122.585C122.431 191.233 122.09 190.705 121.562 190.244C121.039 189.778 120.335 189.545 119.448 189.545C118.664 189.545 117.977 189.75 117.386 190.159C116.8 190.562 116.343 191.134 116.013 191.872C115.69 192.605 115.528 193.466 115.528 194.455C115.528 195.466 115.687 196.347 116.005 197.097C116.329 197.847 116.783 198.429 117.369 198.844C117.96 199.259 118.653 199.466 119.448 199.466C119.971 199.466 120.445 199.375 120.871 199.193C121.298 199.011 121.658 198.75 121.954 198.409C122.249 198.068 122.46 197.659 122.585 197.182H124.596C124.482 197.955 124.201 198.651 123.752 199.27C123.309 199.884 122.721 200.372 121.988 200.736C121.261 201.094 120.414 201.273 119.448 201.273ZM129.548 183.545V201H127.536V183.545H129.548ZM138.55 201.273C137.368 201.273 136.331 200.991 135.439 200.429C134.553 199.866 133.859 199.08 133.359 198.068C132.865 197.057 132.618 195.875 132.618 194.523C132.618 193.159 132.865 191.969 133.359 190.952C133.859 189.935 134.553 189.145 135.439 188.582C136.331 188.02 137.368 187.739 138.55 187.739C139.732 187.739 140.766 188.02 141.652 188.582C142.544 189.145 143.237 189.935 143.732 190.952C144.232 191.969 144.482 193.159 144.482 194.523C144.482 195.875 144.232 197.057 143.732 198.068C143.237 199.08 142.544 199.866 141.652 200.429C140.766 200.991 139.732 201.273 138.55 201.273ZM138.55 199.466C139.447 199.466 140.186 199.236 140.766 198.776C141.345 198.315 141.774 197.71 142.053 196.96C142.331 196.21 142.47 195.398 142.47 194.523C142.47 193.648 142.331 192.832 142.053 192.077C141.774 191.321 141.345 190.71 140.766 190.244C140.186 189.778 139.447 189.545 138.55 189.545C137.652 189.545 136.913 189.778 136.334 190.244C135.754 190.71 135.325 191.321 135.047 192.077C134.768 192.832 134.629 193.648 134.629 194.523C134.629 195.398 134.768 196.21 135.047 196.96C135.325 197.71 135.754 198.315 136.334 198.776C136.913 199.236 137.652 199.466 138.55 199.466ZM147.322 183.545L152.504 198.239H152.708L157.89 183.545H160.106L153.697 201H151.515L145.106 183.545H147.322ZM166.822 201.273C165.56 201.273 164.472 200.994 163.558 200.438C162.648 199.875 161.947 199.091 161.452 198.085C160.964 197.074 160.719 195.898 160.719 194.557C160.719 193.216 160.964 192.034 161.452 191.011C161.947 189.983 162.634 189.182 163.515 188.608C164.401 188.028 165.435 187.739 166.617 187.739C167.299 187.739 167.972 187.852 168.637 188.08C169.302 188.307 169.907 188.676 170.452 189.188C170.998 189.693 171.433 190.364 171.756 191.199C172.08 192.034 172.242 193.062 172.242 194.284V195.136H162.151V193.398H170.197C170.197 192.659 170.049 192 169.754 191.42C169.464 190.841 169.049 190.384 168.509 190.048C167.975 189.713 167.344 189.545 166.617 189.545C165.816 189.545 165.123 189.744 164.538 190.142C163.958 190.534 163.512 191.045 163.2 191.676C162.887 192.307 162.731 192.983 162.731 193.705V194.864C162.731 195.852 162.901 196.69 163.242 197.378C163.589 198.06 164.069 198.58 164.683 198.938C165.296 199.29 166.009 199.466 166.822 199.466C167.35 199.466 167.827 199.392 168.254 199.244C168.685 199.091 169.058 198.864 169.37 198.562C169.683 198.256 169.924 197.875 170.094 197.42L172.038 197.966C171.833 198.625 171.489 199.205 171.006 199.705C170.523 200.199 169.927 200.585 169.217 200.864C168.506 201.136 167.708 201.273 166.822 201.273ZM175.302 201V187.909H177.245V189.886H177.381C177.62 189.239 178.052 188.713 178.677 188.31C179.302 187.906 180.006 187.705 180.79 187.705C180.938 187.705 181.123 187.707 181.344 187.713C181.566 187.719 181.734 187.727 181.847 187.739V189.784C181.779 189.767 181.623 189.741 181.379 189.707C181.14 189.668 180.887 189.648 180.62 189.648C179.984 189.648 179.415 189.781 178.915 190.048C178.421 190.31 178.029 190.673 177.739 191.139C177.455 191.599 177.313 192.125 177.313 192.716V201H175.302ZM188.776 201.273C187.685 201.273 186.722 200.997 185.887 200.446C185.052 199.889 184.398 199.105 183.927 198.094C183.455 197.077 183.219 195.875 183.219 194.489C183.219 193.114 183.455 191.92 183.927 190.909C184.398 189.898 185.055 189.116 185.896 188.565C186.737 188.014 187.708 187.739 188.81 187.739C189.663 187.739 190.336 187.881 190.83 188.165C191.33 188.443 191.711 188.761 191.972 189.119C192.239 189.472 192.447 189.761 192.594 189.989H192.765V183.545H194.776V201H192.833V198.989H192.594C192.447 199.227 192.237 199.528 191.964 199.892C191.691 200.25 191.302 200.571 190.796 200.855C190.29 201.134 189.617 201.273 188.776 201.273ZM189.049 199.466C189.856 199.466 190.538 199.256 191.094 198.835C191.651 198.409 192.075 197.821 192.364 197.071C192.654 196.315 192.799 195.443 192.799 194.455C192.799 193.477 192.657 192.622 192.373 191.889C192.089 191.151 191.668 190.577 191.112 190.168C190.555 189.753 189.867 189.545 189.049 189.545C188.197 189.545 187.487 189.764 186.918 190.202C186.356 190.634 185.933 191.222 185.648 191.966C185.37 192.705 185.231 193.534 185.231 194.455C185.231 195.386 185.373 196.233 185.657 196.994C185.947 197.75 186.373 198.352 186.935 198.801C187.504 199.244 188.208 199.466 189.049 199.466ZM204.228 201.273C202.967 201.273 201.879 200.994 200.964 200.438C200.055 199.875 199.353 199.091 198.859 198.085C198.37 197.074 198.126 195.898 198.126 194.557C198.126 193.216 198.37 192.034 198.859 191.011C199.353 189.983 200.04 189.182 200.921 188.608C201.808 188.028 202.842 187.739 204.023 187.739C204.705 187.739 205.379 187.852 206.043 188.08C206.708 188.307 207.313 188.676 207.859 189.188C208.404 189.693 208.839 190.364 209.163 191.199C209.487 192.034 209.648 193.062 209.648 194.284V195.136H199.558V193.398H207.603C207.603 192.659 207.455 192 207.16 191.42C206.87 190.841 206.455 190.384 205.915 190.048C205.381 189.713 204.751 189.545 204.023 189.545C203.222 189.545 202.529 189.744 201.944 190.142C201.364 190.534 200.918 191.045 200.606 191.676C200.293 192.307 200.137 192.983 200.137 193.705V194.864C200.137 195.852 200.308 196.69 200.648 197.378C200.995 198.06 201.475 198.58 202.089 198.938C202.702 199.29 203.415 199.466 204.228 199.466C204.756 199.466 205.234 199.392 205.66 199.244C206.092 199.091 206.464 198.864 206.776 198.562C207.089 198.256 207.33 197.875 207.501 197.42L209.444 197.966C209.239 198.625 208.896 199.205 208.413 199.705C207.93 200.199 207.333 200.585 206.623 200.864C205.913 201.136 205.114 201.273 204.228 201.273Z" fill="#1B5E20"/>
</svg>
