<svg width="587" height="38" viewBox="0 0 587 38" fill="none" xmlns="http://www.w3.org/2000/svg">
<g clip-path="url(#clip0_1_1044)">
<path d="M570.22 8.61011H584.47V10.0001H570.22V8.61011Z" fill="#0C0421"/>
<path d="M585.14 11.17C584.113 11.17 583.28 10.3372 583.28 9.30995C583.28 8.2827 584.113 7.44995 585.14 7.44995C586.167 7.44995 587 8.2827 587 9.30995C587 10.3372 586.167 11.17 585.14 11.17Z" fill="#0C0421"/>
<path d="M570 8.72009L582.35 1.59009L583.04 2.80009L570.7 9.93009L570 8.72009Z" fill="#0C0421"/>
<path d="M583.28 3.72C582.253 3.72 581.42 2.88725 581.42 1.86C581.42 0.83275 582.253 0 583.28 0C584.307 0 585.14 0.83275 585.14 1.86C585.14 2.88725 584.307 3.72 583.28 3.72Z" fill="#0C0421"/>
<path d="M570 9.88993L570.7 8.67993L583.04 15.8099L582.35 17.0199L570 9.88993Z" fill="#0C0421"/>
<path d="M583.28 18.6099C582.253 18.6099 581.42 17.7771 581.42 16.7499C581.42 15.7226 582.253 14.8899 583.28 14.8899C584.307 14.8899 585.14 15.7226 585.14 16.7499C585.14 17.7771 584.307 18.6099 583.28 18.6099Z" fill="#0C0421"/>
<path d="M249.62 36.15C261.3 36.15 272.29 31.6 280.55 23.34L282.22 21.67C290.73 13.16 302.04 8.47998 314.07 8.47998H571.03V9.78998H314.07C302.39 9.78998 291.4 14.34 283.14 22.6L281.47 24.27C272.96 32.78 261.65 37.46 249.62 37.46H0V36.15H249.62Z" fill="#0C0421"/>
</g>
<defs>
<clipPath id="clip0_1_1044">
<rect width="587" height="37.46" fill="white" transform="matrix(-1 0 0 1 587 0)"/>
</clipPath>
</defs>
</svg>
