<svg width="30" height="32" viewBox="0 0 30 32" fill="none" xmlns="http://www.w3.org/2000/svg">
<path d="M14.3017 0.379298C14.3569 -0.126433 15.0309 -0.126433 15.086 0.379298L15.5483 4.62192C16.1453 10.1003 20.112 14.4196 25.1431 15.0696L29.0394 15.573C29.5039 15.6331 29.5039 16.3669 29.0394 16.427L25.1431 16.9304C20.112 17.5804 16.1453 21.8997 15.5483 27.378L15.086 31.6207C15.0309 32.1264 14.3569 32.1264 14.3017 31.6207L13.8394 27.378C13.2425 21.8997 9.27579 17.5804 4.24462 16.9304L0.348335 16.427C-0.116112 16.3669 -0.116112 15.6331 0.348335 15.573L4.24462 15.0696C9.27579 14.4196 13.2425 10.1003 13.8394 4.62192L14.3017 0.379298Z" fill="#0C0421"/>
</svg>
